<?xml version="1.0" standalone="no"?><!DOCTYPE svg PUBLIC "-//W3C//DTD SVG 1.1//EN" "http://www.w3.org/Graphics/SVG/1.1/DTD/svg11.dtd"><svg class="icon" width="200px" height="200.00px" viewBox="0 0 1024 1024" version="1.1" xmlns="http://www.w3.org/2000/svg"><path fill="#ffffff" d="M828.61 78H393.39A68.48 68.48 0 0 0 325 146.41v21.24h72V150h428v558h-38.21v72h41.82A68.48 68.48 0 0 0 897 711.59V146.41A68.48 68.48 0 0 0 828.61 78zM663 221H199a68.07 68.07 0 0 0-68 68v590a68.07 68.07 0 0 0 68 68h464a68.07 68.07 0 0 0 68-68V289a68.07 68.07 0 0 0-68-68z m-4 654H203V293h456z" /></svg>